<svg width="48" height="48" viewBox="0 0 48 48" fill="none" xmlns="http://www.w3.org/2000/svg">
<path d="M23.9996 16C27.9329 16 31.8079 16.7917 35.6246 18.375C39.4413 19.9583 42.8329 22.3333 45.7996 25.5C46.1996 25.9 46.3996 26.3667 46.3996 26.9C46.3996 27.4333 46.1996 27.9 45.7996 28.3L41.1996 32.8C40.8329 33.1667 40.4079 33.3667 39.9246 33.4C39.4413 33.4333 38.9996 33.3 38.5996 33L32.7996 28.6C32.5329 28.4 32.3329 28.1667 32.1996 27.9C32.0663 27.6333 31.9996 27.3333 31.9996 27V21.3C30.7329 20.9 29.4329 20.5833 28.0996 20.35C26.7663 20.1167 25.3996 20 23.9996 20C22.5996 20 21.2329 20.1167 19.8996 20.35C18.5663 20.5833 17.2663 20.9 15.9996 21.3V27C15.9996 27.3333 15.9329 27.6333 15.7996 27.9C15.6663 28.1667 15.4663 28.4 15.1996 28.6L9.39961 33C8.99961 33.3 8.55794 33.4333 8.07461 33.4C7.59128 33.3667 7.16628 33.1667 6.79961 32.8L2.19961 28.3C1.79961 27.9 1.59961 27.4333 1.59961 26.9C1.59961 26.3667 1.79961 25.9 2.19961 25.5C5.13294 22.3333 8.51628 19.9583 12.3496 18.375C16.1829 16.7917 20.0663 16 23.9996 16Z" fill="#5B9061"/>
</svg>
