<svg width="48" height="48" viewBox="0 0 48 48" fill="none" xmlns="http://www.w3.org/2000/svg">
<path d="M24 44C23.5333 44 23.1333 43.8667 22.8 43.6C22.4667 43.3333 22.2167 42.9833 22.05 42.55C21.4167 40.6833 20.6167 38.9333 19.65 37.3C18.7167 35.6667 17.4 33.75 15.7 31.55C14 29.35 12.6167 27.25 11.55 25.25C10.5167 23.25 10 20.8333 10 18C10 14.1 11.35 10.8 14.05 8.1C16.7833 5.36667 20.1 4 24 4C27.9 4 31.2 5.36667 33.9 8.1C36.6333 10.8 38 14.1 38 18C38 21.0333 37.4167 23.5667 36.25 25.6C35.1167 27.6 33.8 29.5833 32.3 31.55C30.5 33.95 29.1333 35.95 28.2 37.55C27.3 39.1167 26.55 40.7833 25.95 42.55C25.7833 43.0167 25.5167 43.3833 25.15 43.65C24.8167 43.8833 24.4333 44 24 44ZM24 36.85C24.5667 35.7167 25.2 34.6 25.9 33.5C26.6333 32.4 27.7 30.9333 29.1 29.1C30.5333 27.2333 31.7 25.5167 32.6 23.95C33.5333 22.35 34 20.3667 34 18C34 15.2333 33.0167 12.8833 31.05 10.95C29.1167 8.98333 26.7667 8 24 8C21.2333 8 18.8667 8.98333 16.9 10.95C14.9667 12.8833 14 15.2333 14 18C14 20.3667 14.45 22.35 15.35 23.95C16.2833 25.5167 17.4667 27.2333 18.9 29.1C20.3 30.9333 21.35 32.4 22.05 33.5C22.7833 34.6 23.4333 35.7167 24 36.85ZM24 23C25.4 23 26.5833 22.5167 27.55 21.55C28.5167 20.5833 29 19.4 29 18C29 16.6 28.5167 15.4167 27.55 14.45C26.5833 13.4833 25.4 13 24 13C22.6 13 21.4167 13.4833 20.45 14.45C19.4833 15.4167 19 16.6 19 18C19 19.4 19.4833 20.5833 20.45 21.55C21.4167 22.5167 22.6 23 24 23Z" fill="#5B9061"/>
</svg>
