<svg width="48" height="48" viewBox="0 0 48 48" fill="none" xmlns="http://www.w3.org/2000/svg">
<path d="M24 0C37.2548 0 48 10.7452 48 24C48 37.2548 37.2548 48 24 48C10.7452 48 0 37.2548 0 24C0 10.7452 10.7452 0 24 0ZM35.792 16.4502C36.1949 14.8343 35.1759 14.1017 34.1201 14.5811L11.002 23.4951C9.42427 24.128 9.43375 25.0081 10.7148 25.4004L16.6475 27.252L30.3818 18.5869C31.0302 18.1939 31.6251 18.4054 31.1367 18.8389L20.0078 28.8818L19.5996 35C20.1994 35 20.465 34.7259 20.7998 34.4004L23.6826 31.5967L29.6797 36.0273C30.7834 36.6363 31.5805 36.3213 31.8555 35.0029L35.792 16.4502Z" fill="#5B9061"/>
</svg>
