<svg width="48" height="48" viewBox="0 0 48 48" fill="none" xmlns="http://www.w3.org/2000/svg">
<path d="M24 0C37.2548 0 48 10.7452 48 24C48 37.2548 37.2548 48 24 48C10.7452 48 0 37.2548 0 24C0 10.7452 10.7452 0 24 0ZM23.5098 17.6035C22.1366 17.59 20.975 17.6082 20.3164 17.9238C19.8782 18.134 19.5397 18.6037 19.7461 18.6309C20.0003 18.664 20.5763 18.7834 20.8818 19.1914C21.2728 19.7144 21.2629 20.8812 21.2627 20.9004C21.2627 20.9004 21.4887 24.1601 20.7324 24.5645C20.2141 24.8417 19.503 24.275 17.9746 21.6836C17.192 20.3562 16.6006 18.8887 16.6006 18.8887C16.5977 18.8819 16.4847 18.6124 16.2832 18.4668C16.0414 18.2921 15.7055 18.2356 15.6924 18.2334L12.0342 18.2568C12.0177 18.2573 11.4817 18.2757 11.2832 18.5068C11.1054 18.7137 11.268 19.1414 11.2695 19.1455C11.2695 19.1455 14.133 25.7224 17.376 29.0371C20.3497 32.0753 23.7256 31.876 23.7256 31.876H25.2559C25.2712 31.8742 25.7215 31.8214 25.9541 31.5762C26.1707 31.3476 26.1631 30.916 26.1631 30.916C26.1628 30.8945 26.1396 28.9007 27.0869 28.6045C28.026 28.312 29.2321 30.5525 30.5117 31.4141C31.469 32.0592 32.1979 31.9255 32.2119 31.9229L35.6318 31.876C35.6561 31.8744 37.4139 31.7583 36.5723 30.3877C36.5022 30.2746 36.0773 29.3665 34.0303 27.501C31.8855 25.5481 32.1734 25.8636 34.7549 22.4854C36.3275 20.4279 36.9563 19.1709 36.7598 18.6338C36.5728 18.1205 35.416 18.2568 35.416 18.2568L31.5674 18.2803C31.5674 18.2803 31.2819 18.2422 31.0703 18.3662C30.8675 18.4856 30.7343 18.7613 30.7295 18.7715C30.7295 18.7715 30.1212 20.3634 29.3086 21.7178C27.5947 24.5738 26.9094 24.7257 26.6289 24.5488C25.9766 24.1347 26.1396 22.8871 26.1396 22.001C26.1396 19.2319 26.5675 18.078 25.3066 17.7793C24.8885 17.6797 24.5803 17.6146 23.5098 17.6035Z" fill="#5B9061"/>
</svg>
